<svg xmlns="http://www.w3.org/2000/svg" id="svg23" preserveAspectRatio="xMinYMid meet" version="1.1" viewBox="157 -1509 148 125"><defs id="defs7"><clipPath id="clip-Activities"><path id="rect4" d="M157-1509h148v125H157z"/></clipPath><style id="style2">.cls-4{fill:#fff}</style></defs><g id="Activities" clip-path="url(#clip-Activities)" style="clip-path:url(#clip-Activities)"><g id="Group_42" data-name="Group 42" transform="translate(-268 -1985)"><ellipse id="Ellipse_37" cx="74" cy="14.785" data-name="Ellipse 37" rx="74" ry="14.785" transform="translate(425 571.43)" style="fill:#000;fill-opacity:.06666667"/><path id="Rectangle_80" d="M0 0h94.182v110.215H0z" data-name="Rectangle 80" transform="translate(451.909 476)" style="fill:#c4c8cc"/><g id="Group_41" data-name="Group 41" transform="translate(467.043 493)"><path id="Rectangle_81" d="M0 0h44.456v5.625H0z" class="cls-4" data-name="Rectangle 81" transform="translate(21.16 .549)"/><path id="Rectangle_82" d="M0 0h33.342v5.625H0z" class="cls-4" data-name="Rectangle 82" transform="translate(21.16 11.652)"/><path id="Rectangle_83" d="M0 0h44.456v5.625H0z" class="cls-4" data-name="Rectangle 83" transform="translate(21.16 30.772)"/><path id="Rectangle_84" d="M0 0h33.342v5.625H0z" class="cls-4" data-name="Rectangle 84" transform="translate(21.16 41.875)"/><path id="Rectangle_85" d="M0 0h44.456v5.625H0z" class="cls-4" data-name="Rectangle 85" transform="translate(21.16 61.291)"/><path id="Rectangle_86" d="M0 0h33.342v5.625H0z" class="cls-4" data-name="Rectangle 86" transform="translate(21.16 72.393)"/><ellipse id="Ellipse_38" cx="7.007" cy="7" class="cls-4" data-name="Ellipse 38" rx="7.007" ry="7"/><ellipse id="Ellipse_39" cx="7.007" cy="7" class="cls-4" data-name="Ellipse 39" rx="7.007" ry="7" transform="translate(0 31)"/><ellipse id="Ellipse_40" cx="7.007" cy="7" class="cls-4" data-name="Ellipse 40" rx="7.007" ry="7" transform="translate(0 61)"/></g></g></g></svg>