<svg xmlns="http://www.w3.org/2000/svg" id="svg34" preserveAspectRatio="xMinYMid meet" version="1.1" viewBox="157 -1305 148 125"><defs id="defs7"><clipPath id="clip-Courses"><path id="rect4" d="M157-1305h148v125H157z"/></clipPath><style id="style2">.cls-3{fill:#c4c8cc}.cls-4{fill:#fff}</style></defs><g id="Courses" clip-path="url(#clip-Courses)" style="clip-path:url(#clip-Courses)"><g id="Group_44" data-name="Group 44" transform="translate(-268 -1781)"><ellipse id="Ellipse_41" cx="74" cy="14.785" data-name="Ellipse 41" rx="74" ry="14.785" transform="translate(425 571.43)" style="fill:#000;fill-opacity:.06666667"/><path id="Rectangle_87" d="M0 0h95.097v110.215H0z" class="cls-3" data-name="Rectangle 87" transform="translate(451.909 476)"/><g id="Group_43" data-name="Group 43" transform="translate(464.04 494)"><path id="Rectangle_88" d="M0 0h31.043v34H0z" class="cls-4" data-name="Rectangle 88"/><path id="Rectangle_89" d="M0 0h31.043v34H0z" class="cls-4" data-name="Rectangle 89" transform="translate(0 42)"/><path id="Rectangle_90" d="M0 0h31.067v34H0z" class="cls-4" data-name="Rectangle 90" transform="translate(39.005)"/><path id="Rectangle_91" d="M0 0h31.067v34H0z" class="cls-4" data-name="Rectangle 91" transform="translate(39.005 42)"/><path id="Rectangle_92" d="M0 0h23.023v3.18H0z" class="cls-3" data-name="Rectangle 92" transform="translate(3.081 16.549)"/><path id="Rectangle_93" d="M0 0h23.023v3.18H0z" class="cls-3" data-name="Rectangle 93" transform="translate(3.081 58.549)"/><path id="Rectangle_94" d="M0 0h23.023v3.18H0z" class="cls-3" data-name="Rectangle 94" transform="translate(43.122 16.549)"/><path id="Rectangle_95" d="M0 0h23.023v3.18H0z" class="cls-3" data-name="Rectangle 95" transform="translate(43.122 58.549)"/><path id="Rectangle_96" d="M0 0h14.014v3.18H0z" class="cls-3" data-name="Rectangle 96" transform="translate(3.081 21.825)"/><path id="Rectangle_97" d="M0 0h18.845v3.18H0z" class="cls-3" data-name="Rectangle 97" transform="translate(3.081 26.825)"/><path id="Rectangle_98" d="M0 0h14.014v3.18H0z" class="cls-3" data-name="Rectangle 98" transform="translate(3.081 63.825)"/><path id="Rectangle_99" d="M0 0h18.845v3.18H0z" class="cls-3" data-name="Rectangle 99" transform="translate(3.081 68.825)"/><path id="Rectangle_100" d="M0 0h14.014v3.18H0z" class="cls-3" data-name="Rectangle 100" transform="translate(43.122 21.825)"/><path id="Rectangle_101" d="M0 0h18.845v3.18H0z" class="cls-3" data-name="Rectangle 101" transform="translate(43.122 26.825)"/><path id="Rectangle_102" d="M0 0h14.014v3.18H0z" class="cls-3" data-name="Rectangle 102" transform="translate(43.122 63.825)"/><path id="Rectangle_103" d="M0 0h18.845v3.18H0z" class="cls-3" data-name="Rectangle 103" transform="translate(43.122 68.825)"/><ellipse id="Ellipse_42" cx="5.658" cy="5.652" class="cls-3" data-name="Ellipse 42" rx="5.658" ry="5.652" transform="translate(3.003 3.55)"/><ellipse id="Ellipse_43" cx="5.658" cy="5.652" class="cls-3" data-name="Ellipse 43" rx="5.658" ry="5.652" transform="translate(3.003 45.55)"/><ellipse id="Ellipse_44" cx="5.658" cy="5.652" class="cls-3" data-name="Ellipse 44" rx="5.658" ry="5.652" transform="translate(43.044 3.55)"/><ellipse id="Ellipse_45" cx="5.658" cy="5.652" class="cls-3" data-name="Ellipse 45" rx="5.658" ry="5.652" transform="translate(43.044 45.55)"/></g></g></g></svg>