<svg xmlns="http://www.w3.org/2000/svg" width="24" height="24" preserveAspectRatio="xMinYMid meet" viewBox="-0.1 -2 24 24" xml:space="preserve" style="overflow:visible;enable-background:new -.1 -2 24 24"><linearGradient id="a" x1="11.935" x2="11.935" y1="0" y2="20" gradientUnits="userSpaceOnUse"><stop offset="0" style="stop-color:#76a1f0"/><stop offset="1" style="stop-color:#6b90d5"/></linearGradient><path style="fill:url(#a)" d="M21.9 19c0 .5-.5 1-1 1h-18c-.5 0-1-.5-1-1V1.1c0-.5.5-1.1 1-1.1h4c.5 0 1.4.3 1.8.6l.9.7c.5.4 1.3.7 1.8.7h9.5c.5 0 1 .5 1 1v16z"/><linearGradient id="b" x1="11.935" x2="11.935" y1=".989" y2="19" gradientUnits="userSpaceOnUse"><stop offset="0" style="stop-color:#bbe0f7"/><stop offset="1" style="stop-color:#82b4fb"/></linearGradient><path style="fill:url(#b)" d="M2.9 19V1.1L3 1h3.9c.3 0 .9.2 1.2.4l.9.8c.7.4 1.7.8 2.4.8h9.5v16h-18z"/><linearGradient id="c" x1="11.935" x2="11.935" y1="1.992" y2="18" gradientUnits="userSpaceOnUse"><stop offset="0" style="stop-color:#95bff8"/><stop offset=".557" style="stop-color:#84adef"/><stop offset="1" style="stop-color:#7ca4eb"/></linearGradient><path style="fill:url(#c)" d="M3.9 18V2h3c.1 0 .5.1.6.2l.9.8c.8.6 2.1 1 3 1h8.5v14h-16z"/><linearGradient id="d" x1="11.936" x2="11.936" y1="5" y2="20" gradientUnits="userSpaceOnUse"><stop offset="0" style="stop-color:#76a1f0"/><stop offset="1" style="stop-color:#6b90d5"/></linearGradient><path style="fill:url(#d)" d="M23 19c0 .5-.5 1-1.1 1h-20c-.5 0-1-.5-1.1-1L0 6c0-.5.4-1 .9-1h22c.5 0 1 .5.9 1L23 19z"/><linearGradient id="e" x1="11.967" x2="11.967" y1="5.954" y2="19" gradientUnits="userSpaceOnUse"><stop offset="0" style="stop-color:#bbe0f7"/><stop offset="1" style="stop-color:#82b4fb"/></linearGradient><path style="fill:url(#e)" d="m1.9 19-.1-.1L1 6h21.9L22 18.9s0 .1-.1.1h-20z"/><linearGradient id="f" x1="11.966" x2="11.966" y1="6.957" y2="18" gradientUnits="userSpaceOnUse"><stop offset="0" style="stop-color:#95bff8"/><stop offset=".557" style="stop-color:#84adef"/><stop offset="1" style="stop-color:#7ca4eb"/></linearGradient><path style="fill:url(#f)" d="M2.8 18 2.1 7h19.8l-.8 11z"/></svg>