<svg xmlns="http://www.w3.org/2000/svg" width="24" height="24" preserveAspectRatio="xMinYMid meet" viewBox="0 -2 24 24" xml:space="preserve" style="overflow:visible;enable-background:new 0 -2 24 24"><linearGradient id="a" x1="18" x2="18" y1="10" y2="20" gradientUnits="userSpaceOnUse"><stop offset="0" style="stop-color:#f0a829"/><stop offset="1" style="stop-color:#c7671a"/></linearGradient><path style="fill:url(#a)" d="M13 10h10v10H13z"/><linearGradient id="b" x1="18" x2="18" y1="11" y2="19" gradientUnits="userSpaceOnUse"><stop offset="0" style="stop-color:#ffeba8"/><stop offset="1" style="stop-color:#f8be27"/></linearGradient><path style="fill:url(#b)" d="M14 11h8v8h-8z"/><linearGradient id="c" x1="18" x2="18" y1="12" y2="18" gradientUnits="userSpaceOnUse"><stop offset="0" style="stop-color:#ffc30f"/><stop offset="1" style="stop-color:#f5ae0d"/></linearGradient><path style="fill:url(#c)" d="M15 12h6v6h-6z"/><linearGradient id="d" x1="18" x2="18" y1="10" y2="14.001" gradientUnits="userSpaceOnUse"><stop offset="0" style="stop-color:#f0a829"/><stop offset="1" style="stop-color:#c7671a"/></linearGradient><path style="fill:url(#d)" d="M12 10h12v4H12z"/><linearGradient id="e" x1="18" x2="18" y1="11" y2="13.001" gradientUnits="userSpaceOnUse"><stop offset="0" style="stop-color:#ffc30f"/><stop offset="1" style="stop-color:#f5ae0d"/></linearGradient><path style="fill:url(#e)" d="M13 11h10v2H13z"/><linearGradient id="f" x1="18" x2="18" y1="10" y2="16.423" gradientUnits="userSpaceOnUse"><stop offset="0" style="stop-color:#8d470d"/><stop offset="1" style="stop-color:#7c3d09"/></linearGradient><path style="fill:url(#f)" d="M17 10v6.4l1-.9 1 .9V10z"/><linearGradient id="g" x1="6" x2="6" y1="10" y2="20" gradientUnits="userSpaceOnUse"><stop offset="0" style="stop-color:#f0a829"/><stop offset="1" style="stop-color:#c7671a"/></linearGradient><path style="fill:url(#g)" d="M1 10h10v10H1z"/><linearGradient id="h" x1="6" x2="6" y1="11" y2="19" gradientUnits="userSpaceOnUse"><stop offset="0" style="stop-color:#ffeba8"/><stop offset="1" style="stop-color:#f8be27"/></linearGradient><path style="fill:url(#h)" d="M2 11h8v8H2z"/><linearGradient id="i" x1="6" x2="6" y1="12" y2="18" gradientUnits="userSpaceOnUse"><stop offset="0" style="stop-color:#ffc30f"/><stop offset="1" style="stop-color:#f5ae0d"/></linearGradient><path style="fill:url(#i)" d="M3 12h6v6H3z"/><linearGradient id="j" x1="6" x2="6" y1="10" y2="14.001" gradientUnits="userSpaceOnUse"><stop offset="0" style="stop-color:#f0a829"/><stop offset="1" style="stop-color:#c7671a"/></linearGradient><path style="fill:url(#j)" d="M0 10h12v4H0z"/><linearGradient id="k" x1="6" x2="6" y1="11" y2="13.001" gradientUnits="userSpaceOnUse"><stop offset="0" style="stop-color:#ffc30f"/><stop offset="1" style="stop-color:#f5ae0d"/></linearGradient><path style="fill:url(#k)" d="M1 11h10v2H1z"/><linearGradient id="l" x1="6" x2="6" y1="10" y2="16.423" gradientUnits="userSpaceOnUse"><stop offset="0" style="stop-color:#8d470d"/><stop offset="1" style="stop-color:#7c3d09"/></linearGradient><path style="fill:url(#l)" d="M5 10v6.4l1-.9 1 .9V10z"/><linearGradient id="m" x1="11.999" x2="11.999" y1="0" y2="10" gradientUnits="userSpaceOnUse"><stop offset="0" style="stop-color:#f0a829"/><stop offset="1" style="stop-color:#c7671a"/></linearGradient><path style="fill:url(#m)" d="M7 0h10v10H7z"/><linearGradient id="n" x1="11.999" x2="11.999" y1="1" y2="9" gradientUnits="userSpaceOnUse"><stop offset="0" style="stop-color:#ffeba8"/><stop offset="1" style="stop-color:#f8be27"/></linearGradient><path style="fill:url(#n)" d="M8 1h8v8H8z"/><linearGradient id="o" x1="11.999" x2="11.999" y1="2" y2="8" gradientUnits="userSpaceOnUse"><stop offset="0" style="stop-color:#ffc30f"/><stop offset="1" style="stop-color:#f5ae0d"/></linearGradient><path style="fill:url(#o)" d="M9 2h6v6H9z"/><linearGradient id="p" x1="11.999" x2="11.999" y1="0" y2="4" gradientUnits="userSpaceOnUse"><stop offset="0" style="stop-color:#f0a829"/><stop offset="1" style="stop-color:#c7671a"/></linearGradient><path style="fill:url(#p)" d="M6 0h12v4H6z"/><linearGradient id="q" x1="11.999" x2="11.999" y1="1" y2="3" gradientUnits="userSpaceOnUse"><stop offset="0" style="stop-color:#ffc30f"/><stop offset="1" style="stop-color:#f5ae0d"/></linearGradient><path style="fill:url(#q)" d="M7 1h10v2H7z"/><linearGradient id="r" x1="11.999" x2="11.999" y1="0" y2="6.423" gradientUnits="userSpaceOnUse"><stop offset="0" style="stop-color:#8d470d"/><stop offset="1" style="stop-color:#7c3d09"/></linearGradient><path style="fill:url(#r)" d="M11 0v6.4l1-.9 1 .9V0z"/></svg>