<svg xmlns="http://www.w3.org/2000/svg" width="24" height="24" preserveAspectRatio="xMinYMid meet" xml:space="preserve" style="overflow:visible;enable-background:new 0 0 24 24"><linearGradient id="a" x1="5.5" x2="5.5" y1="10" y2="14.001" gradientUnits="userSpaceOnUse"><stop offset="0" style="stop-color:#95bff8"/><stop offset=".557" style="stop-color:#84adef"/><stop offset="1" style="stop-color:#7ca4eb"/></linearGradient><path style="fill:url(#a)" d="M5 10h1v4H5z"/><linearGradient id="b" x1="15" x2="15" y1="5" y2="9" gradientUnits="userSpaceOnUse"><stop offset="0" style="stop-color:#95bff8"/><stop offset=".557" style="stop-color:#84adef"/><stop offset="1" style="stop-color:#7ca4eb"/></linearGradient><path style="fill:url(#b)" d="M18 5h-7v1h7v3h1V5z"/><linearGradient id="c" x1="5.5" x2="5.5" y1="14" y2="24" gradientUnits="userSpaceOnUse"><stop offset="0" style="stop-color:#76a1f0"/><stop offset="1" style="stop-color:#6b90d5"/></linearGradient><path style="fill:url(#c)" d="M10 14H1c-.6 0-1 .4-1 1v9h11v-9c0-.6-.4-1-1-1z"/><linearGradient id="d" x1="5.5" x2="5.5" y1="17" y2="23" gradientUnits="userSpaceOnUse"><stop offset="0" style="stop-color:#e7f4fc"/><stop offset="1" style="stop-color:#deeffc"/></linearGradient><path style="fill:url(#d)" d="M1 17h9v6H1z"/><linearGradient id="e" x1="5.5" x2="5.5" y1="18" y2="22" gradientUnits="userSpaceOnUse"><stop offset="0" style="stop-color:#cee9f9"/><stop offset="1" style="stop-color:#bbdff8"/></linearGradient><path style="fill:url(#e)" d="M2 18h7v4H2z"/><linearGradient id="f" x1="5.5" x2="5.5" y1="15" y2="16" gradientUnits="userSpaceOnUse"><stop offset="0" style="stop-color:#bbe0f7"/><stop offset="1" style="stop-color:#82b4fb"/></linearGradient><path style="fill:url(#f)" d="M1 15h9v1H1z"/><linearGradient id="g" x1="18.5" x2="18.5" y1="9" y2="19" gradientUnits="userSpaceOnUse"><stop offset="0" style="stop-color:#76a1f0"/><stop offset="1" style="stop-color:#6b90d5"/></linearGradient><path style="fill:url(#g)" d="M23 9h-9c-.6 0-1 .4-1 1v9h11v-9c0-.6-.4-1-1-1z"/><linearGradient id="h" x1="18.5" x2="18.5" y1="12" y2="18" gradientUnits="userSpaceOnUse"><stop offset="0" style="stop-color:#e7f4fc"/><stop offset="1" style="stop-color:#deeffc"/></linearGradient><path style="fill:url(#h)" d="M14 12h9v6h-9z"/><linearGradient id="i" x1="18.5" x2="18.5" y1="13" y2="17" gradientUnits="userSpaceOnUse"><stop offset="0" style="stop-color:#cee9f9"/><stop offset="1" style="stop-color:#bbdff8"/></linearGradient><path style="fill:url(#i)" d="M15 13h7v4h-7z"/><linearGradient id="j" x1="18.5" x2="18.5" y1="10" y2="11" gradientUnits="userSpaceOnUse"><stop offset="0" style="stop-color:#bbe0f7"/><stop offset="1" style="stop-color:#82b4fb"/></linearGradient><path style="fill:url(#j)" d="M14 10h9v1h-9z"/><linearGradient id="k" x1="5.5" x2="5.5" y1="0" y2="10" gradientUnits="userSpaceOnUse"><stop offset="0" style="stop-color:#76a1f0"/><stop offset="1" style="stop-color:#6b90d5"/></linearGradient><path style="fill:url(#k)" d="M10 0H1C.4 0 0 .4 0 1v9h11V1c0-.6-.4-1-1-1z"/><linearGradient id="l" x1="5.5" x2="5.5" y1="3" y2="9" gradientUnits="userSpaceOnUse"><stop offset="0" style="stop-color:#e7f4fc"/><stop offset="1" style="stop-color:#deeffc"/></linearGradient><path style="fill:url(#l)" d="M1 3h9v6H1z"/><linearGradient id="m" x1="5.5" x2="5.5" y1="4" y2="8" gradientUnits="userSpaceOnUse"><stop offset="0" style="stop-color:#cee9f9"/><stop offset="1" style="stop-color:#bbdff8"/></linearGradient><path style="fill:url(#m)" d="M2 4h7v4H2z"/><linearGradient id="n" x1="5.5" x2="5.5" y1="1" y2="2" gradientUnits="userSpaceOnUse"><stop offset="0" style="stop-color:#bbe0f7"/><stop offset="1" style="stop-color:#82b4fb"/></linearGradient><path style="fill:url(#n)" d="M1 1h9v1H1z"/></svg>