<svg xmlns="http://www.w3.org/2000/svg" width="24" height="24" preserveAspectRatio="xMinYMid meet" viewBox="0 -2 24 24" xml:space="preserve" style="overflow:visible;enable-background:new 0 -2 24 24"><linearGradient id="a" x1="11.999" x2="11.999" y1="0" y2="20" gradientUnits="userSpaceOnUse"><stop offset="0" style="stop-color:#f0a829"/><stop offset="1" style="stop-color:#c7671a"/></linearGradient><path style="fill:url(#a)" d="M1 0h22v20H1z"/><linearGradient id="b" x1="11.999" x2="11.999" y1="1" y2="19" gradientUnits="userSpaceOnUse"><stop offset="0" style="stop-color:#ffeba8"/><stop offset="1" style="stop-color:#f8be27"/></linearGradient><path style="fill:url(#b)" d="M2 1h20v18H2z"/><linearGradient id="c" x1="11.999" x2="11.999" y1="2" y2="18" gradientUnits="userSpaceOnUse"><stop offset="0" style="stop-color:#ffc30f"/><stop offset="1" style="stop-color:#f5ae0d"/></linearGradient><path style="fill:url(#c)" d="M3 2h18v16H3z"/><linearGradient id="d" x1="11.999" x2="11.999" y1="0" y2="7" gradientUnits="userSpaceOnUse"><stop offset="0" style="stop-color:#f0a829"/><stop offset="1" style="stop-color:#c7671a"/></linearGradient><path style="fill:url(#d)" d="M0 0h24v7H0z"/><linearGradient id="e" x1="11.999" x2="11.999" y1="1" y2="6" gradientUnits="userSpaceOnUse"><stop offset="0" style="stop-color:#ffeba8"/><stop offset="1" style="stop-color:#f8be27"/></linearGradient><path style="fill:url(#e)" d="M1 1h22v5H1z"/><linearGradient id="f" x1="11.999" x2="11.999" y1="2" y2="5" gradientUnits="userSpaceOnUse"><stop offset="0" style="stop-color:#ffc30f"/><stop offset="1" style="stop-color:#f5ae0d"/></linearGradient><path style="fill:url(#f)" d="M2 2h20v3H2z"/><linearGradient id="g" x1="11.499" x2="11.499" y1="0" y2="13.001" gradientUnits="userSpaceOnUse"><stop offset="0" style="stop-color:#8d470d"/><stop offset="1" style="stop-color:#7c3d09"/></linearGradient><path style="fill:url(#g)" d="M9 0v13l2.5-2 2.5 2V0z"/><linearGradient id="h" x1="11.499" x2="11.499" y1="1" y2="10.935" gradientUnits="userSpaceOnUse"><stop offset="0" style="stop-color:#d58738"/><stop offset="1" style="stop-color:#ab551f"/></linearGradient><path style="fill:url(#h)" d="M10 1v9.9l1.5-1.2 1.5 1.2V1z"/><linearGradient id="i" x1="11.5" x2="11.5" y1="2" y2="8.871" gradientUnits="userSpaceOnUse"><stop offset="0" style="stop-color:#d0813a"/><stop offset="1" style="stop-color:#af551d"/></linearGradient><path style="fill:url(#i)" d="M11 2v6.8l.5-.4.5.5V2z"/></svg>