<svg xmlns="http://www.w3.org/2000/svg" width="24" height="24" preserveAspectRatio="xMinYMid meet" xml:space="preserve" style="overflow:visible;enable-background:new 0 0 24 24"><linearGradient id="a" x1="20" x2="20" y1="8" y2="24" gradientUnits="userSpaceOnUse"><stop offset="0" style="stop-color:#76a1f0"/><stop offset="1" style="stop-color:#6b90d5"/></linearGradient><path style="fill:url(#a)" d="M16 8h8v16h-8z"/><linearGradient id="b" x1="20" x2="20" y1="9" y2="23" gradientUnits="userSpaceOnUse"><stop offset="0" style="stop-color:#bbe0f7"/><stop offset="1" style="stop-color:#82b4fb"/></linearGradient><path style="fill:url(#b)" d="M17 9h6v14h-6z"/><linearGradient id="c" x1="20" x2="20" y1="10" y2="22" gradientUnits="userSpaceOnUse"><stop offset="0" style="stop-color:#95bff8"/><stop offset=".557" style="stop-color:#84adef"/><stop offset="1" style="stop-color:#7ca4eb"/></linearGradient><path style="fill:url(#c)" d="M18 10h4v12h-4z"/><linearGradient id="d" x1="11.999" x2="11.999" y1="0" y2="24" gradientUnits="userSpaceOnUse"><stop offset="0" style="stop-color:#90c50e"/><stop offset="1" style="stop-color:#70a034"/></linearGradient><path style="fill:url(#d)" d="M8 0h8v24H8z"/><linearGradient id="e" x1="11.999" x2="11.999" y1="1" y2="23" gradientUnits="userSpaceOnUse"><stop offset="0" style="stop-color:#d9f991"/><stop offset=".239" style="stop-color:#d7f88d"/><stop offset=".45" style="stop-color:#d1f383"/><stop offset=".651" style="stop-color:#c6ec71"/><stop offset=".844" style="stop-color:#b7e257"/><stop offset="1" style="stop-color:#a8d73d"/></linearGradient><path style="fill:url(#e)" d="M9 1h6v22H9z"/><linearGradient id="f" x1="11.999" x2="11.999" y1="2" y2="22" gradientUnits="userSpaceOnUse"><stop offset="0" style="stop-color:#b3e810"/><stop offset="1" style="stop-color:#90c60d"/></linearGradient><path style="fill:url(#f)" d="M10 2h4v20h-4z"/><linearGradient id="g" x1="4" x2="4" y1="12" y2="24" gradientUnits="userSpaceOnUse"><stop offset="0" style="stop-color:#f0a829"/><stop offset="1" style="stop-color:#c7671a"/></linearGradient><path style="fill:url(#g)" d="M0 12h8v12H0z"/><linearGradient id="h" x1="4" x2="4" y1="13" y2="23" gradientUnits="userSpaceOnUse"><stop offset="0" style="stop-color:#ffeba8"/><stop offset="1" style="stop-color:#f8be27"/></linearGradient><path style="fill:url(#h)" d="M1 13h6v10H1z"/><linearGradient id="i" x1="4" x2="4" y1="14" y2="22" gradientUnits="userSpaceOnUse"><stop offset="0" style="stop-color:#ffc30f"/><stop offset="1" style="stop-color:#f5ae0d"/></linearGradient><path style="fill:url(#i)" d="M2 14h4v8H2z"/></svg>